<svg width="132" height="132" viewBox="0 0 132 132" fill="none" xmlns="http://www.w3.org/2000/svg">
<circle cx="66" cy="66" r="66" fill="black"/>
<path d="M67.1952 97.3725C65.2643 99.3034 63.1977 100.812 60.9953 101.898C58.7929 102.954 56.5905 103.542 54.3881 103.663C52.1857 103.784 50.1341 103.361 48.2334 102.396L51.2429 94.9061C52.4798 95.5095 53.8073 95.8565 55.2253 95.947C56.6282 96.0224 58.0311 95.8112 59.434 95.3134C60.8369 94.7855 62.1266 93.9332 63.3033 92.7565C64.495 91.5648 65.3397 90.358 65.8375 89.1362C66.3203 87.8992 66.4485 86.6999 66.2222 85.5384C66.011 84.3618 65.4227 83.2907 64.4573 82.3253C63.7181 81.5861 62.8432 81.1336 61.8325 80.9677C60.8218 80.8017 59.7357 80.847 58.5741 81.1034C57.4126 81.3599 56.2058 81.7672 54.9538 82.3253C53.7168 82.8684 52.4798 83.4868 51.2429 84.1807C49.4628 85.1764 47.7281 86.006 46.0386 86.6698C44.334 87.3184 42.6746 87.7106 41.0605 87.8464C39.4615 87.9671 37.9078 87.7559 36.3993 87.2128C34.8908 86.6698 33.4426 85.7043 32.0548 84.3165C30.9084 83.1701 30.1013 81.9406 29.6337 80.6282C29.166 79.3159 28.9699 77.9582 29.0454 76.5553C29.1359 75.1373 29.4451 73.7269 29.9731 72.324C30.5161 70.906 31.2251 69.5484 32.1001 68.251C32.975 66.9236 33.9781 65.6941 35.1095 64.5628C36.9197 62.7526 38.8506 61.3648 40.9021 60.3993C42.9537 59.4037 44.96 58.8456 46.921 58.7249C48.8821 58.5741 50.6395 58.8984 52.1932 59.6979L49.2743 67.1423C48.1429 66.5842 46.9814 66.2825 45.7897 66.2372C44.613 66.1769 43.459 66.3805 42.3277 66.8481C41.2114 67.3007 40.1554 68.0248 39.1598 69.0204C38.4357 69.7445 37.8248 70.5213 37.327 71.351C36.8443 72.1656 36.5124 72.9953 36.3314 73.84C36.1504 74.6848 36.1579 75.5069 36.354 76.3064C36.5501 77.0757 36.965 77.7772 37.5985 78.4108C38.5187 79.3309 39.5671 79.8665 40.7437 80.0173C41.9053 80.1531 43.1724 79.9871 44.5451 79.5195C45.933 79.0368 47.4188 78.3504 49.0027 77.4604C50.2699 76.7363 51.6049 76.05 53.0078 75.4013C54.4107 74.7225 55.8438 74.1643 57.307 73.7269C58.7702 73.2894 60.2184 73.0481 61.6515 73.0028C63.0996 72.9425 64.5101 73.1612 65.8828 73.659C67.2404 74.1417 68.5302 74.994 69.7521 76.2159C71.0645 77.5283 72.0148 78.9161 72.6031 80.3793C73.1915 81.8124 73.4705 83.2832 73.4404 84.7917C73.4102 86.27 73.1236 87.7483 72.5805 89.2267C72.0525 90.6899 71.3209 92.1154 70.3857 93.5032C69.4655 94.876 68.402 96.1657 67.1952 97.3725ZM85.3827 78.1894L53.7043 46.511L62.5969 37.6185C63.6679 36.5474 64.837 35.5594 66.1041 34.6543C67.3713 33.719 68.7289 32.9497 70.1771 32.3463C71.6252 31.7429 73.1639 31.3808 74.7931 31.2602C76.4373 31.1244 78.1872 31.3054 80.0426 31.8032C81.883 32.2859 83.8138 33.176 85.8352 34.4733C87.8566 35.7404 89.976 37.4827 92.1935 39.7002C94.411 41.9177 96.1609 44.0447 97.4431 46.0811C98.7253 48.0874 99.6153 50.0183 100.113 51.8737C100.596 53.7141 100.769 55.4564 100.634 57.1007C100.513 58.7299 100.151 60.2685 99.5474 61.7167C98.944 63.1648 98.1823 64.53 97.2621 65.8122C96.3419 67.0643 95.3463 68.2258 94.2753 69.2969L85.3827 78.1894ZM86.7403 68.5954L89.7271 65.6086C90.949 64.3867 91.8918 63.0668 92.5556 61.6488C93.2193 60.2006 93.4908 58.6469 93.3702 56.9875C93.2495 55.3282 92.6461 53.5331 91.56 51.6022C90.4889 49.6563 88.8296 47.5595 86.5819 45.3118C84.3343 43.0641 82.2375 41.4048 80.2915 40.3338C78.3606 39.2476 76.5655 38.6442 74.9062 38.5236C73.2468 38.4029 71.7006 38.682 70.2676 39.3608C68.8345 40.0094 67.507 40.9447 66.2851 42.1666L63.2983 45.1534L86.7403 68.5954Z" fill="white"/>
</svg>
