<svg width="40" height="40" viewBox="0 0 40 40" fill="none" xmlns="http://www.w3.org/2000/svg">
<rect width="40" height="40" rx="20" fill="#D9D9D9"/>
<path d="M15 31C14.45 31 13.9792 30.8042 13.5875 30.4125C13.1958 30.0208 13 29.55 13 29V11C13 10.45 13.1958 9.97917 13.5875 9.5875C13.9792 9.19583 14.45 9 15 9H25C25.55 9 26.0208 9.19583 26.4125 9.5875C26.8042 9.97917 27 10.45 27 11V29C27 29.55 26.8042 30.0208 26.4125 30.4125C26.0208 30.8042 25.55 31 25 31H15ZM15 26V29H25V26H15ZM20 28.5C20.2833 28.5 20.5208 28.4042 20.7125 28.2125C20.9042 28.0208 21 27.7833 21 27.5C21 27.2167 20.9042 26.9792 20.7125 26.7875C20.5208 26.5958 20.2833 26.5 20 26.5C19.7167 26.5 19.4792 26.5958 19.2875 26.7875C19.0958 26.9792 19 27.2167 19 27.5C19 27.7833 19.0958 28.0208 19.2875 28.2125C19.4792 28.4042 19.7167 28.5 20 28.5ZM15 24H25V14H15V24ZM15 12H25V11H15V12Z" fill="black"/>
</svg>
