<svg width="40" height="40" viewBox="0 0 40 40" fill="none" xmlns="http://www.w3.org/2000/svg">
<rect width="40" height="40" rx="20" fill="#D9D9D9"/>
<path d="M10 29C9.71667 29 9.47917 28.9042 9.2875 28.7125C9.09583 28.5208 9 28.2833 9 28C9 27.7167 9.09583 27.4792 9.2875 27.2875C9.47917 27.0958 9.71667 27 10 27H30C30.2833 27 30.5208 27.0958 30.7125 27.2875C30.9042 27.4792 31 27.7167 31 28C31 28.2833 30.9042 28.5208 30.7125 28.7125C30.5208 28.9042 30.2833 29 30 29H10ZM12 26C11.45 26 10.9792 25.8042 10.5875 25.4125C10.1958 25.0208 10 24.55 10 24V13C10 12.45 10.1958 11.9792 10.5875 11.5875C10.9792 11.1958 11.45 11 12 11H28C28.55 11 29.0208 11.1958 29.4125 11.5875C29.8042 11.9792 30 12.45 30 13V24C30 24.55 29.8042 25.0208 29.4125 25.4125C29.0208 25.8042 28.55 26 28 26H12ZM12 24H28V13H12V24Z" fill="black"/>
</svg>
