<svg width="257" height="14" viewBox="0 0 257 14" fill="none" xmlns="http://www.w3.org/2000/svg">
<path d="M2 7.25189C11.0219 7.25189 23.4406 4.86521 32.1415 7.75189C38.8633 9.98197 48.2091 7.25189 55.4653 7.25189C69.36 7.25189 83.2546 7.25189 97.1492 7.25189C100.878 7.25189 109.699 8.19739 101.096 9.19633C95.5436 9.8411 101.424 8.11891 103.608 7.30745C103.921 7.19121 102.012 7.99348 101.754 8.02967C94.9809 8.9794 87.7727 8.14233 80.9421 8.47411C70.5679 8.97802 60.3719 9.64849 49.9633 9.02967C45.2517 8.74955 40.7028 8.25189 35.969 8.25189C30.0279 8.25189 47.8546 8.25361 53.7908 8.02967C73.4159 7.28933 92.9985 7.25189 112.639 7.25189C112.99 7.25189 115.529 7.21131 114.672 7.363C101.553 9.68423 88.2119 10.2484 74.9018 10.7519C53.5976 11.5578 32.2946 12.2519 10.9707 12.2519C5.81222 12.2519 18.7634 10.3556 19.463 10.3074C48.2035 8.32978 77.6979 8.49084 106.419 10.7519C112.922 11.2638 109.718 11.2519 106 11.2519C91.6671 11.2519 77.3339 11.2519 63.0007 11.2519C58.5752 11.2519 54.1496 11.2519 49.7241 11.2519C48.4084 11.2519 47.0923 11.2813 45.777 11.2519C43.7073 11.2056 45.2438 11.0082 46.375 10.8074C57.9236 8.75826 69.4298 7.3639 81.1813 6.69633C92.0037 6.08155 103.387 6.87206 109.888 5.47411C120.581 3.17471 132.09 2.74979 143.019 2.363C144.516 2.31004 163.826 2.4874 154.203 5.19633C148.337 6.8476 142.105 8.04792 136.022 8.69633C135.129 8.79154 125.883 9.13987 126.633 8.69633C131.588 5.76733 140.475 5.45409 146.01 4.91856C158.005 3.75782 171.164 3.31951 183.208 4.25189C188.345 4.64957 173.235 6.76376 168.137 7.47411C157.287 8.98601 146.658 9.82108 135.723 10.4741C135.186 10.5062 124.586 11.0399 127.231 10.2519C137.929 7.06437 150.983 7.35033 162.037 6.47411C163.536 6.35532 191.222 4.12538 191.222 6.02967C191.222 7.30533 178.37 7.24942 177.945 7.25189C172.324 7.28453 166.702 7.25189 161.08 7.25189C157.256 7.25189 168.697 6.59853 172.503 6.25189C185.782 5.04248 199.179 5.01601 212.512 5.30745C221.083 5.49479 217.754 6.32089 212.094 6.75189C204.324 7.34353 196.497 7.83467 188.71 8.19633C186.384 8.30437 183.946 7.68699 187.693 7.25189C202.102 5.57882 245.466 2.3807 231.171 4.75189C225.609 5.67463 219.913 6.17611 214.306 6.80745C212.257 7.03824 205.013 7.6387 211.316 6.25189C224.774 3.29105 266.37 1.26656 252.581 2.25189C247.242 2.63345 242.276 5.25189 236.913 5.25189C235.463 5.25189 241.674 4.59058 243.132 4.25189" stroke="#EA5A11" stroke-width="3" stroke-linecap="round"/>
</svg>
