<svg width="143" height="13" viewBox="0 0 143 13" fill="none" xmlns="http://www.w3.org/2000/svg">
<path d="M2.5 9.50002C1.62328 9.14933 4.14802 8.53859 5.05556 8.2778C12.9948 5.99643 21.3258 5.38032 29.5 4.50002C37.0368 3.68837 44.5672 2.79934 52.1111 2.05558C53.9187 1.87737 59.197 1.05581 57.5556 1.83336C46.743 6.9551 33.5605 6.67795 21.8889 7.72225C18.6863 8.00879 14.025 9.16058 10.7222 8.50002C9.49003 8.25359 13.1671 7.88234 14.4167 7.75002C28.2514 6.28518 43.1557 6.19725 57 7.61114C59.6196 7.87867 62.2746 8.50002 64.9167 8.50002C65.6428 8.50002 63.0941 9.10006 63.0556 9.11114C60.7704 9.76778 53.1184 10.4224 59.75 9.94447C80.2901 8.4641 101.163 7.57027 121.75 8.5278C129.215 8.875 106.902 10.2915 99.4445 10.7778C93.9113 11.1387 88.3223 11.2985 82.7778 11.2778C79.4688 11.2655 73.6452 11.781 70.5833 10.25C68.2183 9.06753 75.7855 9.26128 78.4167 9.00002C84.2459 8.42123 90.0293 8.00002 95.8889 8.00002C97.0722 8.00002 107.987 8.64908 107.583 8.97225C105.658 10.5126 100.648 10.1205 98.3889 10.3889C96.0321 10.6689 93.2787 11.2791 90.8889 10.8889C88.3706 10.4778 95.8809 9.78403 98.4167 9.50002C104.981 8.76485 111.576 8.15991 118.167 7.72225C118.947 7.67042 124.653 7.72135 124.556 7.75002C122.917 8.23195 116.511 8.45527 121.5 7.50002C127.869 6.28038 134.541 6.4037 141 6.00002" stroke="#EA5A11" stroke-width="3" stroke-linecap="round"/>
</svg>
